<svg xmlns="http://www.w3.org/2000/svg" width="201" height="70" viewBox="0 0 201 70"><g><g><g><g><g><path fill="#4d48e2" d="M19.343 70.102l2.885-3.893c3.355-4.34 4.733-7.335 4.726-8.28a2.075 2.075 0 0 0-.348-.003l-.67.043c-5.952.387-15.912 1.038-22.877-9.69A18.047 18.047 0 0 1 .661 42.73C-.624 37.606.329 31.79 3.207 26.987 2.315 25.52.786 22.49 1.24 19.537c.258-1.687 1.107-3.07 2.52-4.11l.118-.079c2.087-1.24 4.517-1.132 7.03.313 1.378.793 2.529 1.837 3.305 2.643.388-.103.777-.2.957-.237 7.008-1.582 14.817-1.618 20.893-.095.374.09.753.192 1.143.306.776-.804 1.92-1.837 3.287-2.623 2.51-1.441 4.94-1.547 7.023-.306l.116.077c4.457 3.274 1.649 8.968.59 11.112l-.074.153c1.919 3.315 2.892 7.325 2.822 11.657-.12 8.412-4.86 16.312-13.703 22.844-6.722 4.965-13.426 7.394-13.489 7.415zm10.194-13.671c.316.609 1.15 2.216-1.947 7.241 2.305-1.168 5.196-2.821 8.077-4.963 8.107-6.027 12.272-12.892 12.38-20.407.067-4.113-.869-7.714-2.78-10.704l-.392-.61.24-.688c.101-.29.266-.625.494-1.086 1.963-3.98 2.068-6.05.365-7.347-2.912-1.657-6.524 2.266-7.223 3.074l-.634.734-.914-.3a23.843 23.843 0 0 0-1.832-.527c-5.674-1.422-12.99-1.38-19.58.113l-.068.014c-.166.033-1.208.302-1.528.407l-.914.299-.634-.733c-.698-.81-4.312-4.733-7.227-3.08-.736.559-1.16 1.255-1.292 2.124-.348 2.266 1.325 5.173 2 6.102l.608.839-.573.864c-2.831 4.266-3.83 9.58-2.668 14.214a15.086 15.086 0 0 0 2.007 4.64c6.03 9.291 14.588 8.73 20.246 8.363l.678-.043c.116-.008.227-.011.334-.011 1.743 0 2.484.907 2.777 1.47z"/></g><g><path fill="#4d48e2" d="M32.15 44.133c-1.893 1.488-4.48.758-5.329.2-.428-.335-.548-.664-.602-1.434 0-.856-.012-5.011-.012-5.011s-.044-2.222 3.334-1.578c2.875.549.627-5.09-4.044-5.18-4.672.09-6.988 5.729-4.113 5.18 3.378-.644 3.334 1.578 3.334 1.578s-.01 4.155-.01 5.01c-.056.771-.175 1.1-.604 1.434-.849.56-3.422 1.289-5.33-.2-.744-.58-1.82.8.132 1.711 3.05 1.424 5.982-.257 6.557-.62.575.363 3.506 2.044 6.556.62 1.952-.911.875-2.294.132-1.71"/></g><g><path fill="#4d48e2" d="M29.057 7.048c.41 0 .707.413.707.98v1.504c0 .565-.298.975-.707.975h-1.808v1.813c0 .426-.407.735-.968.735h-1.485c-.548 0-.961-.316-.961-.735v-1.813h-1.553a.97.97 0 0 1-.962-.975V8.028c0-.54.431-.98.962-.98h1.553V5.553c0-.58.431-1.053.961-1.053h1.485c.534 0 .968.472.968 1.053v1.495zm-4.332 2.557v2.543c.02.003.044.004.071.004h1.485c.03 0 .056-.002.077-.005V9.605h2.511a.622.622 0 0 0 .004-.073V8.028a.593.593 0 0 0-.004-.078h-2.51V5.553c0-.093-.05-.15-.078-.15h-1.485c-.017 0-.07.054-.07.15V7.95h-2.444c-.041 0-.071.033-.071.078v1.504c0 .04.032.073.07.073z"/></g><g><path fill="#4d48e2" d="M39.316 9.054v5.518c0 .486-.381.884-.861.902h-.03c-.013 0-.018 0-.03-.007a.888.888 0 0 1-.86-.895V9.024c.005-.114.029-2.13-1.77-4-2.019-2.106-5.457-3.19-10.219-3.22-4.762.03-8.2 1.114-10.219 3.22-1.8 1.87-1.775 3.886-1.775 3.97v4.019c0 .174.07.331.19.451.125.12.279.187.45.181h1.165c.492 0 .89.403.89.902 0 .5-.398.903-.89.903h-1.2c-.807 0-1.585-.427-2.048-1.18-.238-.396-.339-.866-.339-1.329V9.024c0-.084-.07-2.78 2.24-5.216C16.366 1.318 20.243.037 25.54 0h.011c5.29.037 9.175 1.318 11.532 3.808 2.304 2.437 2.238 5.132 2.233 5.246"/></g></g><g><g><g><g><path fill="#4d48e2" d="M201.077 33.233c-.22-.035-.462-.071-.725-.106a6.893 6.893 0 0 0-.905-.053c-1.02 0-1.784.31-2.293.932-.51.622-.765 1.519-.765 2.691v6.208h-3.439V30.143h3.363v1.972h.076a5.223 5.223 0 0 1 1.428-1.64c.61-.47 1.324-.705 2.14-.705.492 0 .866.036 1.12.107z"/></g></g><g><path fill="#4d48e2" d="M191.294 30.144v12.762h-3.313v-.456a6.325 6.325 0 0 1-3.27.915c-3.634 0-6.581-3.081-6.581-6.882 0-3.802 2.947-6.883 6.582-6.883a6.32 6.32 0 0 1 3.27.915v-.37zm-6.582 9.764c1.795 0 3.249-1.513 3.27-3.386v-.079c-.021-1.873-1.475-3.387-3.27-3.387-1.808 0-3.274 1.535-3.274 3.427 0 1.892 1.466 3.425 3.274 3.425z"/></g><g><path fill="#4d48e2" d="M155.51 29.59c3.638 0 6.588 3.085 6.588 6.89 0 3.805-2.95 6.89-6.589 6.89-3.639 0-6.589-3.085-6.589-6.89 0-3.805 2.95-6.89 6.59-6.89m.004 10.328c1.813 0 3.282-1.537 3.282-3.433 0-1.895-1.47-3.431-3.282-3.431-1.813 0-3.282 1.536-3.282 3.431 0 1.896 1.47 3.433 3.282 3.433"/></g><g><path fill="#4d48e2" d="M148.21 43.375h3.573V26.07h-3.573z"/></g><g><path fill="#4d48e2" d="M167.372 37.875c.513 1.176 1.648 1.989 2.967 1.989a3.202 3.202 0 0 0 2.552-1.278l2.718 1.983a6.657 6.657 0 0 1-2.092 1.897 6.29 6.29 0 0 1-3.178.858c-1.999 0-3.793-.935-5-2.412-.03-.036-.06-.067-.088-.102a6.951 6.951 0 0 1-1.344-2.935 7.201 7.201 0 0 1 .01-2.928c.576-2.72 2.688-4.836 5.337-5.29a7.73 7.73 0 0 1 .924-.057c1.818 0 3.32.634 4.506 1.912.895.96 1.453 2.106 1.672 3.435.074.429.108.879.108 1.35 0 .561-.058 1.088-.171 1.578zm5.907-2.928c-.527-1.14-1.646-1.928-2.94-1.928s-2.407.788-2.934 1.928z"/></g><g><path fill="#4d48e2" d="M88.652 29.6c3.635 0 6.582 3.081 6.582 6.883 0 3.8-2.947 6.882-6.582 6.882s-6.582-3.081-6.582-6.882c0-3.802 2.947-6.883 6.582-6.883m0 10.308c1.807 0 3.271-1.533 3.271-3.425 0-1.893-1.464-3.427-3.27-3.427-1.807 0-3.272 1.534-3.272 3.427 0 1.892 1.465 3.425 3.271 3.425"/></g><g><path fill="#4d48e2" d="M103.484 39.905c-1.808 0-3.275-1.528-3.275-3.42 0-1.891 1.467-3.425 3.275-3.425 1.09 0 2.053.558 2.645 1.411l2.874-1.733c-1.173-1.89-3.207-3.138-5.519-3.138-3.636 0-6.584 3.082-6.584 6.886 0 3.797 2.948 6.88 6.584 6.88 2.308 0 4.34-1.248 5.514-3.129l-2.87-1.732c-.596.848-1.558 1.4-2.644 1.4"/></g><g><path fill="#4d48e2" d="M126.852 29.6c3.635 0 6.582 3.081 6.582 6.883 0 3.8-2.947 6.882-6.582 6.882s-6.582-3.081-6.582-6.882c0-3.802 2.947-6.883 6.582-6.883m0 10.308c1.807 0 3.27-1.533 3.27-3.425 0-1.893-1.463-3.427-3.27-3.427-1.806 0-3.271 1.534-3.271 3.427 0 1.892 1.465 3.425 3.27 3.425"/></g><g><path fill="#4d48e2" d="M110.66 30.146h1.478V26.07h3.464v4.076h2.88v3.038h-2.88v4.955c0 .747.12 1.248.357 1.506.238.258.628.386 1.172.386.526 0 1.02-.071 1.478-.213v2.93a8.183 8.183 0 0 1-1.198.253c-.441.063-.84.094-1.197.094-.764 0-1.406-.106-1.923-.32a3.097 3.097 0 0 1-1.262-.92c-.322-.398-.552-.882-.687-1.451a8.138 8.138 0 0 1-.204-1.892v-5.328h-1.478z"/></g><g><path fill="#4d48e2" d="M143.227 33.233a29.33 29.33 0 0 0-.725-.106 6.898 6.898 0 0 0-.905-.053c-1.02 0-1.783.31-2.293.932-.51.622-.765 1.519-.765 2.691v6.208H135.1V30.143h3.364v1.972h.075a5.23 5.23 0 0 1 1.428-1.64c.61-.47 1.325-.705 2.14-.705.492 0 .866.036 1.12.107z"/></g><g><path fill="#4d48e2" d="M82.978 37.873h-5.06c-.753 0-1.368-.644-1.368-1.431s.615-1.432 1.369-1.432h5.06c.752 0 1.368.645 1.368 1.432 0 .787-.616 1.431-1.369 1.431"/></g><g><path fill="#4d48e2" d="M77.346 30.878a8.327 8.327 0 0 0-1.777-1.858 7.89 7.89 0 0 0-4.876-1.68h-6.881c-.179 0-.348.038-.505.1-.39.153-.697.475-.842.883-.058.164-.095.34-.095.524v4.029c0 .832.646 1.507 1.442 1.507.796 0 1.441-.675 1.441-1.508v-2.522H70.7c2.959 0 5.365 2.516 5.365 5.617 0 3.093-2.406 5.617-5.365 5.617h-5.447v-2.53c0-.833-.645-1.508-1.441-1.508s-1.442.675-1.442 1.507V43.09c0 .406.156.784.418 1.058.18.192.408.32.653.387.028.008.055.02.085.027.076.015.153.02.23.024.02 0 .037.005.056.005h6.881a7.732 7.732 0 0 0 2.958-.577s1.026-.485 1.77-.991c.05-.03.099-.067.142-.104.332-.252.657-.54.955-.851a8.794 8.794 0 0 0 2.427-6.098 8.793 8.793 0 0 0-1.6-5.092"/></g></g></g></g></g></g></svg>