<svg xmlns="http://www.w3.org/2000/svg" width="125" height="43" viewBox="0 0 125 43"><g><g><g><g><g><path fill="#fff" d="M11.808 42.791l1.761-2.377c2.049-2.65 2.89-4.478 2.885-5.054a1.268 1.268 0 0 0-.212-.002l-.41.026c-3.633.236-9.714.634-13.965-5.916a11.018 11.018 0 0 1-1.465-3.387c-.784-3.129-.202-6.68 1.555-9.612-.545-.894-1.478-2.745-1.201-4.548.158-1.03.676-1.874 1.538-2.509l.073-.048c1.273-.757 2.757-.691 4.291.19.842.485 1.544 1.122 2.018 1.614.237-.062.475-.122.584-.144 4.279-.966 9.046-.988 12.756-.058.228.055.46.117.697.187.474-.491 1.172-1.122 2.007-1.602 1.533-.88 3.015-.944 4.287-.187l.071.048c2.721 1.998 1.007 5.474.361 6.783l-.046.094c1.172 2.023 1.766 4.472 1.723 7.116-.074 5.136-2.966 9.959-8.365 13.946-4.104 3.032-8.197 4.514-8.235 4.528zm6.223-8.346c.193.371.702 1.353-1.188 4.42a34.517 34.517 0 0 0 4.931-3.03c4.95-3.679 7.492-7.87 7.558-12.457.04-2.512-.53-4.71-1.697-6.535l-.24-.373.147-.42c.062-.177.162-.381.301-.663 1.199-2.43 1.263-3.693.223-4.485-1.777-1.012-3.983 1.383-4.41 1.877l-.386.447-.558-.183c-.393-.129-.76-.234-1.12-.321-3.463-.868-7.93-.843-11.952.068l-.042.01c-.102.02-.738.183-.933.247l-.558.183-.387-.447c-.426-.494-2.633-2.89-4.413-1.881-.449.341-.707.766-.788 1.297-.213 1.383.809 3.158 1.22 3.725l.372.512-.35.528c-1.728 2.604-2.338 5.848-1.629 8.677a9.21 9.21 0 0 0 1.226 2.833c3.681 5.673 8.906 5.33 12.36 5.106l.414-.027c.07-.004.138-.006.204-.006 1.064 0 1.517.554 1.695.898z"/></g><g><path fill="#fff" d="M19.631 26.948c-1.156.909-2.735.463-3.254.122-.26-.204-.334-.405-.367-.875 0-.523-.007-3.06-.007-3.06s-.027-1.356 2.035-.963c1.755.335.383-3.107-2.469-3.162-2.852.055-4.266 3.497-2.51 3.162 2.061-.393 2.035.964 2.035.964s-.007 2.536-.007 3.059c-.034.47-.107.67-.369.875-.518.341-2.088.787-3.253-.122-.455-.355-1.111.488.08 1.045 1.862.869 3.652-.158 4.003-.38.351.222 2.141 1.249 4.003.38 1.192-.557.534-1.401.08-1.045"/></g><g><path fill="#fff" d="M17.743 4.295c.25 0 .432.252.432.6v.917c0 .345-.182.595-.432.595H16.64v1.107c0 .26-.248.449-.59.449h-.907c-.334 0-.587-.193-.587-.45V6.408h-.948a.592.592 0 0 1-.587-.595v-.918c0-.33.263-.599.587-.599h.948v-.912c0-.355.264-.643.587-.643h.907c.326 0 .59.288.59.643v.912zM15.1 5.856V7.41a.298.298 0 0 0 .043.003h.907a.34.34 0 0 0 .047-.003V5.856h1.533a.38.38 0 0 0 .002-.044v-.918a.362.362 0 0 0-.003-.048h-1.532V3.383c0-.057-.03-.092-.047-.092h-.907c-.01 0-.043.033-.043.092v1.463h-1.492c-.025 0-.043.02-.043.048v.918c0 .025.02.044.043.044z"/></g><g><path fill="#fff" d="M23.997 5.528v3.368c0 .297-.233.54-.526.55h-.018c-.008 0-.011 0-.018-.003a.542.542 0 0 1-.526-.547V5.509c.004-.07.018-1.3-1.08-2.442-1.233-1.285-3.331-1.947-6.239-1.965-2.907.018-5.006.68-6.238 1.965C8.253 4.21 8.268 5.44 8.268 5.491v2.453a.387.387 0 0 0 .391.386h.71c.301 0 .544.246.544.551 0 .305-.243.551-.543.551h-.732c-.493 0-.968-.26-1.25-.72a1.58 1.58 0 0 1-.208-.811V5.509c0-.05-.043-1.697 1.367-3.184C9.987.805 12.353.022 15.587 0h.007c3.23.022 5.6.805 7.04 2.325C24.04 3.812 24 5.458 23.997 5.528"/></g></g><g><g><g><g><path fill="#fff" d="M122.762 20.284a17.743 17.743 0 0 0-.443-.065 4.207 4.207 0 0 0-.553-.032c-.622 0-1.089.19-1.4.569-.31.38-.466.927-.466 1.643v3.79h-2.1v-7.792h2.053v1.204h.047c.207-.38.497-.713.871-1 .373-.287.809-.431 1.306-.431.301 0 .53.022.685.065z"/></g></g><g><path fill="#fff" d="M116.786 18.402v7.791h-2.022v-.278a3.862 3.862 0 0 1-1.996.559c-2.22 0-4.018-1.882-4.018-4.202 0-2.32 1.799-4.202 4.018-4.202.728 0 1.408.205 1.996.559v-.227zm-4.018 5.96c1.096 0 1.984-.923 1.996-2.066v-.048c-.012-1.143-.9-2.066-1.996-2.066-1.104 0-1.998.936-1.998 2.09s.894 2.09 1.998 2.09z"/></g><g><path fill="#fff" d="M94.943 18.07c2.221 0 4.022 1.884 4.022 4.207 0 2.322-1.8 4.206-4.022 4.206-2.222 0-4.023-1.883-4.023-4.206 0-2.323 1.801-4.207 4.023-4.207m0 6.309c1.104 0 2-.94 2-2.097 0-1.159-.896-2.097-2-2.097-1.105 0-2.001.938-2.001 2.097 0 1.158.896 2.097 2 2.097"/></g><g><path fill="#fff" d="M90.48 26.474h2.181V15.91H90.48z"/></g><g><path fill="#fff" d="M102.185 23.122c.313.718 1.006 1.214 1.812 1.214.63 0 1.193-.303 1.557-.78l1.66 1.21c-.34.475-.776.871-1.278 1.159a3.84 3.84 0 0 1-1.94.524c-1.22 0-2.315-.571-3.052-1.473-.018-.022-.036-.04-.054-.063a4.244 4.244 0 0 1-.82-1.791 4.397 4.397 0 0 1 .006-1.788c.352-1.66 1.64-2.952 3.258-3.23.182-.022.37-.034.564-.034 1.11 0 2.027.387 2.751 1.167a3.954 3.954 0 0 1 1.021 2.097c.045.262.066.537.066.824 0 .343-.036.665-.105.964zm3.608-1.798a1.99 1.99 0 0 0-1.796-1.167c-.791 0-1.471.477-1.794 1.167z"/></g><g><path fill="#fff" d="M54.129 18.07c2.219 0 4.018 1.881 4.018 4.202 0 2.32-1.8 4.202-4.018 4.202-2.22 0-4.019-1.882-4.019-4.202 0-2.32 1.8-4.202 4.019-4.202m0 6.292c1.103 0 1.998-.936 1.998-2.09s-.895-2.09-1.998-2.09c-1.104 0-2 .936-2 2.09s.896 2.09 2 2.09"/></g><g><path fill="#fff" d="M63.18 24.361c-1.104 0-2-.933-2-2.087 0-1.155.896-2.091 2-2.091.665 0 1.253.34 1.614.86l1.755-1.057c-.716-1.155-1.958-1.916-3.37-1.916-2.22 0-4.019 1.882-4.019 4.204 0 2.318 1.8 4.2 4.02 4.2 1.409 0 2.65-.762 3.366-1.91l-1.752-1.058a1.974 1.974 0 0 1-1.614.855"/></g><g><path fill="#fff" d="M77.448 18.07c2.22 0 4.019 1.881 4.019 4.202 0 2.32-1.8 4.202-4.019 4.202-2.22 0-4.018-1.882-4.018-4.202 0-2.32 1.799-4.202 4.018-4.202m0 6.292c1.104 0 1.999-.936 1.999-2.09s-.895-2.09-1.999-2.09c-1.103 0-1.998.936-1.998 2.09s.895 2.09 1.998 2.09"/></g><g><path fill="#fff" d="M67.56 18.399h.902V15.91h2.115v2.489h1.758v1.854h-1.758v3.025c0 .456.073.762.218.92.145.157.384.235.716.235.32 0 .622-.043.902-.13v1.79a4.996 4.996 0 0 1-.731.154c-.27.038-.514.057-.731.057-.467 0-.859-.065-1.174-.195a1.89 1.89 0 0 1-.77-.562 2.2 2.2 0 0 1-.42-.886 4.968 4.968 0 0 1-.125-1.155v-3.253h-.902z"/></g><g><path fill="#fff" d="M87.442 20.284a17.91 17.91 0 0 0-.443-.065 4.21 4.21 0 0 0-.552-.032c-.623 0-1.09.19-1.4.569-.312.38-.467.927-.467 1.643v3.79h-2.1v-7.792h2.053v1.204h.047c.207-.38.498-.713.871-1 .373-.287.81-.431 1.307-.431.3 0 .528.022.684.065z"/></g><g><path fill="#fff" d="M50.655 23.118h-3.09c-.46 0-.835-.393-.835-.874 0-.48.376-.874.836-.874h3.089c.46 0 .835.394.835.874s-.376.874-.835.874"/></g><g><path fill="#fff" d="M47.223 18.85a5.084 5.084 0 0 0-1.085-1.134 4.817 4.817 0 0 0-2.977-1.026h-4.2a.842.842 0 0 0-.31.061.895.895 0 0 0-.513.54.948.948 0 0 0-.058.32v2.458c0 .509.394.92.88.92s.88-.411.88-.92v-1.54h3.325c1.807 0 3.276 1.536 3.276 3.43 0 1.888-1.47 3.429-3.276 3.429H39.84v-1.545c0-.508-.394-.92-.88-.92s-.88.412-.88.92v2.462c0 .249.095.479.255.646.11.118.25.195.399.237.017.004.034.012.052.016.046.01.093.013.14.015.012 0 .023.003.034.003H43.162a4.72 4.72 0 0 0 1.806-.352s.627-.297 1.08-.606a5.014 5.014 0 0 0 1.175-1.197c.64-.908.977-1.984.977-3.109s-.337-2.2-.976-3.108"/></g></g></g></g></g></g></svg>